<svg xmlns="http://www.w3.org/2000/svg" viewBox="0 0 87.71 96.62">
	<path id="base" d="M87.71 64.98v-33.33a15 15 0 00-7.49-13l-28.88 -16.67a14.94 14.94 0 00-15 0l-28.85 16.67a15 15 0 00-7.49 13v33.33a15 15 0 007.49 13l28.88 16.67a15 15 0 0015 0l28.85 -16.67a15 15 0 007.49-13z" style="fill: #000000"/>
	<g id="left">
		<path id="l-1x1" d="M41.20 55.98 v29.69c0,3.67-2.25,5.37-5,3.78l-27.23-15.72c-2.75-1.59-5-5.9-5-9.56v-29.69c0-3.67 2.25-5.37 5-3.78l27.23 15.72c2.75 1.6 5.01 5.9 5.01 9.57z" style="fill: #d50000"/>
	</g>
	<g id="top">
		<path id="t-1x1" d="M48.83 42.42 l27.23-15.72c2.75-1.59 2.4-4.39-.78-6.23l-25.7-14.84c-3.18-1.84-8-2-10.79-.45l-27.23 15.72c-2.75 1.59-2.4 4.39.78 6.23l25.71 14.84c3.17 1.84 8.02 2.04 10.78.45z" style="fill: #dfdfdf"/>
	</g>
	<g id="right">
		<path id="r-1x1" d="M46.52 56.98 v29.69c0 3.66 2.25 5.37 5 3.78l27.23-15.72c2.76-1.59 5-5.9 5-9.56v-29.73c0-3.67-2.25-5.37-5-3.78l-27.23 15.72c-2.77 1.6-5 5.89-5 9.6z" style="fill: #3434d4"/>
	</g>
</svg>