<svg xmlns="http://www.w3.org/2000/svg" viewBox="0 0 599 451">
	<path id="base" d="M7.42 148.00h133.16s7.42 0 7.42 -7.42v-133.16s0 -7.42 7.42 -7.42h140.16s7.42 0 7.42 7.42v133.16s0 7.42 7.42 7.42h281.16s7.42 0 7.42 7.42v140.16s 0 7.42 -7.42 7.42h-281.16s-7.42 0 -7.42 7.42v133.16s0 7.42 -7.42 7.42h-140.16s-7.42 0 -7.42 -7.42v-133.16s0 -7.42 -7.42 -7.42h-133.16s-7.42 0 -7.42 -7.42v-140.16s0 -7.42 7.42 -7.42" style="fill: #000000"/>
	<g id="front">
		<rect id="f-1x1" x="155" y="155" width="43" height="43" rx="6.21" style="fill: #d50000"/>
		<rect id="f-2x1" x="204" y="155" width="43" height="43" rx="6.21" style="fill: #d50000"/>
		<rect id="f-3x1" x="253" y="155" width="43" height="43" rx="6.21" style="fill: #d50000"/>
		<rect id="f-1x2" x="155" y="204" width="43" height="43" rx="6.21" style="fill: #d50000"/>
		<rect id="f-2x2" x="204" y="204" width="43" height="43" rx="6.21" style="fill: #d50000"/>
		<rect id="f-3x2" x="253" y="204" width="43" height="43" rx="6.21" style="fill: #d50000"/>
		<rect id="f-1x3" x="155" y="253" width="43" height="43" rx="6.21" style="fill: #d50000"/>
		<rect id="f-2x3" x="204" y="253" width="43" height="43" rx="6.21" style="fill: #d50000"/>
		<rect id="f-3x3" x="253" y="253" width="43" height="43" rx="6.21" style="fill: #d50000"/>
	</g>
	<g id="left">
		<rect id="l-1x1" x="7" y="155" width="43" height="43" rx="6.21" style="fill: #009900"/>
		<rect id="l-2x1" x="56" y="155" width="43" height="43" rx="6.21" style="fill: #009900"/>
		<rect id="l-3x1" x="105" y="155" width="43" height="43" rx="6.21" style="fill: #009900"/>
		<rect id="l-1x2" x="7" y="204" width="43" height="43" rx="6.21" style="fill: #009900"/>
		<rect id="l-2x2" x="56" y="204" width="43" height="43" rx="6.21" style="fill: #009900"/>
		<rect id="l-3x2" x="105" y="204" width="43" height="43" rx="6.21" style="fill: #009900"/>
		<rect id="l-1x3" x="7" y="253" width="43" height="43" rx="6.21" style="fill: #009900"/>
		<rect id="l-2x3" x="56" y="253" width="43" height="43" rx="6.21" style="fill: #009900"/>
		<rect id="l-3x3" x="105" y="253" width="43" height="43" rx="6.21" style="fill: #009900"/>
	</g>
	<g id="up">
		<rect id="u-1x1" x="155" y="7" width="43" height="43" rx="6.21" style="fill: #dfdfdf"/>
		<rect id="u-2x1" x="204" y="7" width="43" height="43" rx="6.21" style="fill: #dfdfdf"/>
		<rect id="u-3x1" x="253" y="7" width="43" height="43" rx="6.21" style="fill: #dfdfdf"/>
		<rect id="u-1x2" x="155" y="56" width="43" height="43" rx="6.21" style="fill: #dfdfdf"/>
		<rect id="u-2x2" x="204" y="56" width="43" height="43" rx="6.21" style="fill: #dfdfdf"/>
		<rect id="u-3x2" x="253" y="56" width="43" height="43" rx="6.21" style="fill: #dfdfdf"/>
		<rect id="u-1x3" x="155" y="105" width="43" height="43" rx="6.21" style="fill: #dfdfdf"/>
		<rect id="u-2x3" x="204" y="105" width="43" height="43" rx="6.21" style="fill: #dfdfdf"/>
		<rect id="u-3x3" x="253" y="105" width="43" height="43" rx="6.21" style="fill: #dfdfdf"/>
	</g>
	<g id="right">
		<rect id="r-1x1" x="303" y="155" width="43" height="43" rx="6.21" style="fill: #3434d4"/>
		<rect id="r-2x1" x="352" y="155" width="43" height="43" rx="6.21" style="fill: #3434d4"/>
		<rect id="r-3x1" x="401" y="155" width="43" height="43" rx="6.21" style="fill: #3434d4"/>
		<rect id="r-1x2" x="303" y="204" width="43" height="43" rx="6.21" style="fill: #3434d4"/>
		<rect id="r-2x2" x="352" y="204" width="43" height="43" rx="6.21" style="fill: #3434d4"/>
		<rect id="r-3x2" x="401" y="204" width="43" height="43" rx="6.21" style="fill: #3434d4"/>
		<rect id="r-1x3" x="303" y="253" width="43" height="43" rx="6.21" style="fill: #3434d4"/>
		<rect id="r-2x3" x="352" y="253" width="43" height="43" rx="6.21" style="fill: #3434d4"/>
		<rect id="r-3x3" x="401" y="253" width="43" height="43" rx="6.21" style="fill: #3434d4"/>
	</g>
	<g id="down">
		<rect id="d-1x1" x="155" y="303" width="43" height="43" rx="6.21" style="fill: #ffff00"/>
		<rect id="d-2x1" x="204" y="303" width="43" height="43" rx="6.21" style="fill: #ffff00"/>
		<rect id="d-3x1" x="253" y="303" width="43" height="43" rx="6.21" style="fill: #ffff00"/>
		<rect id="d-1x2" x="155" y="352" width="43" height="43" rx="6.21" style="fill: #ffff00"/>
		<rect id="d-2x2" x="204" y="352" width="43" height="43" rx="6.21" style="fill: #ffff00"/>
		<rect id="d-3x2" x="253" y="352" width="43" height="43" rx="6.21" style="fill: #ffff00"/>
		<rect id="d-1x3" x="155" y="401" width="43" height="43" rx="6.21" style="fill: #ffff00"/>
		<rect id="d-2x3" x="204" y="401" width="43" height="43" rx="6.21" style="fill: #ffff00"/>
		<rect id="d-3x3" x="253" y="401" width="43" height="43" rx="6.21" style="fill: #ffff00"/>
	</g>
	<g id="back">
		<rect id="b-1x1" x="451" y="155" width="43" height="43" rx="6.21" style="fill: #ef6c00"/>
		<rect id="b-2x1" x="500" y="155" width="43" height="43" rx="6.21" style="fill: #ef6c00"/>
		<rect id="b-3x1" x="549" y="155" width="43" height="43" rx="6.21" style="fill: #ef6c00"/>
		<rect id="b-1x2" x="451" y="204" width="43" height="43" rx="6.21" style="fill: #ef6c00"/>
		<rect id="b-2x2" x="500" y="204" width="43" height="43" rx="6.21" style="fill: #ef6c00"/>
		<rect id="b-3x2" x="549" y="204" width="43" height="43" rx="6.21" style="fill: #ef6c00"/>
		<rect id="b-1x3" x="451" y="253" width="43" height="43" rx="6.21" style="fill: #ef6c00"/>
		<rect id="b-2x3" x="500" y="253" width="43" height="43" rx="6.21" style="fill: #ef6c00"/>
		<rect id="b-3x3" x="549" y="253" width="43" height="43" rx="6.21" style="fill: #ef6c00"/>
	</g>
</svg>