<svg xmlns="http://www.w3.org/2000/svg" viewBox="0 0 257.43 292.62">
	<path id="base" d="M257.43 211.98v-131.33a15 15 0 00-7.49-13l-113.74 -65.67a14.94 14.94 0 00-15 0l-113.71 65.67a15 15 0 00-7.49 13v131.33a15 15 0 007.49 13l113.74 65.67a15 15 0 0015 0l113.71 -65.67a15 15 0 007.49-13z" style="fill: #dfdfdf"/>
	<g id="left">
		<path id="l-1x1" d="M41.20 104.98 v29.69c0,3.67-2.25,5.37-5,3.78l-27.23-15.72c-2.75-1.59-5-5.9-5-9.56v-29.69c0-3.67 2.25-5.37 5-3.78l27.23 15.72c2.75 1.6 5.01 5.9 5.01 9.57z" style="fill: #d50000"/>
		<path id="l-1x2" d="M83.63 129.48 v29.69c0,3.67-2.25,5.37-5,3.78l-27.23-15.72c-2.75-1.59-5-5.9-5-9.56v-29.69c0-3.67 2.25-5.37 5-3.78l27.23 15.72c2.75 1.6 5.01 5.9 5.01 9.57z" style="fill: #d50000"/>
		<path id="l-1x3" d="M126.06 153.98 v29.69c0,3.67-2.25,5.37-5,3.78l-27.23-15.72c-2.75-1.59-5-5.9-5-9.56v-29.69c0-3.67 2.25-5.37 5-3.78l27.23 15.72c2.75 1.6 5.01 5.9 5.01 9.57z" style="fill: #d50000"/>
		<path id="l-2x1" d="M41.20 153.98 v29.69c0,3.67-2.25,5.37-5,3.78l-27.23-15.72c-2.75-1.59-5-5.9-5-9.56v-29.69c0-3.67 2.25-5.37 5-3.78l27.23 15.72c2.75 1.6 5.01 5.9 5.01 9.57z" style="fill: #d50000"/>
		<path id="l-2x2" d="M83.63 178.48 v29.69c0,3.67-2.25,5.37-5,3.78l-27.23-15.72c-2.75-1.59-5-5.9-5-9.56v-29.69c0-3.67 2.25-5.37 5-3.78l27.23 15.72c2.75 1.6 5.01 5.9 5.01 9.57z" style="fill: #d50000"/>
		<path id="l-2x3" d="M126.06 202.98 v29.69c0,3.67-2.25,5.37-5,3.78l-27.23-15.72c-2.75-1.59-5-5.9-5-9.56v-29.69c0-3.67 2.25-5.37 5-3.78l27.23 15.72c2.75 1.6 5.01 5.9 5.01 9.57z" style="fill: #d50000"/>
		<path id="l-3x1" d="M41.20 202.98 v29.69c0,3.67-2.25,5.37-5,3.78l-27.23-15.72c-2.75-1.59-5-5.9-5-9.56v-29.69c0-3.67 2.25-5.37 5-3.78l27.23 15.72c2.75 1.6 5.01 5.9 5.01 9.57z" style="fill: #d50000"/>
		<path id="l-3x2" d="M83.63 227.48 v29.69c0,3.67-2.25,5.37-5,3.78l-27.23-15.72c-2.75-1.59-5-5.9-5-9.56v-29.69c0-3.67 2.25-5.37 5-3.78l27.23 15.72c2.75 1.6 5.01 5.9 5.01 9.57z" style="fill: #d50000"/>
		<path id="l-3x3" d="M126.06 251.98 v29.69c0,3.67-2.25,5.37-5,3.78l-27.23-15.72c-2.75-1.59-5-5.9-5-9.56v-29.69c0-3.67 2.25-5.37 5-3.78l27.23 15.72c2.75 1.6 5.01 5.9 5.01 9.57z" style="fill: #d50000"/>
	</g>
	<g id="top">
		<path id="t-1x1" d="M48.83 91.42 l27.23-15.72c2.75-1.59 2.4-4.39-.78-6.23l-25.7-14.84c-3.18-1.84-8-2-10.79-.45l-27.23 15.72c-2.75 1.59-2.4 4.39.78 6.23l25.71 14.84c3.17 1.84 8.02 2.04 10.78.45z" style="fill: #000000"/>
		<path id="t-1x2" d="M91.26 66.92 l27.23-15.72c2.75-1.59 2.4-4.39-.78-6.23l-25.7-14.84c-3.18-1.84-8-2-10.79-.45l-27.23 15.72c-2.75 1.59-2.4 4.39.78 6.23l25.71 14.84c3.17 1.84 8.02 2.04 10.78.45z" style="fill: #000000"/>
		<path id="t-1x3" d="M133.69 42.42 l27.23-15.72c2.75-1.59 2.4-4.39-.78-6.23l-25.7-14.84c-3.18-1.84-8-2-10.79-.45l-27.23 15.72c-2.75 1.59-2.4 4.39.78 6.23l25.71 14.84c3.17 1.84 8.02 2.04 10.78.45z" style="fill: #000000"/>
		<path id="t-2x1" d="M91.30 115.92 l27.23-15.72c2.75-1.59 2.4-4.39-.78-6.23l-25.7-14.84c-3.18-1.84-8-2-10.79-.45l-27.23 15.72c-2.75 1.59-2.4 4.39.78 6.23l25.71 14.84c3.17 1.84 8.02 2.04 10.78.45z" style="fill: #000000"/>
		<path id="t-2x2" d="M133.73 91.42 l27.23-15.72c2.75-1.59 2.4-4.39-.78-6.23l-25.7-14.84c-3.18-1.84-8-2-10.79-.45l-27.23 15.72c-2.75 1.59-2.4 4.39.78 6.23l25.71 14.84c3.17 1.84 8.02 2.04 10.78.45z" style="fill: #000000"/>
		<path id="t-2x3" d="M176.16 66.92 l27.23-15.72c2.75-1.59 2.4-4.39-.78-6.23l-25.7-14.84c-3.18-1.84-8-2-10.79-.45l-27.23 15.72c-2.75 1.59-2.4 4.39.78 6.23l25.71 14.84c3.17 1.84 8.02 2.04 10.78.45z" style="fill: #000000"/>
		<path id="t-3x1" d="M133.77 140.42 l27.23-15.72c2.75-1.59 2.4-4.39-.78-6.23l-25.7-14.84c-3.18-1.84-8-2-10.79-.45l-27.23 15.72c-2.75 1.59-2.4 4.39.78 6.23l25.71 14.84c3.17 1.84 8.02 2.04 10.78.45z" style="fill: #000000"/>
		<path id="t-3x2" d="M176.20 115.92 l27.23-15.72c2.75-1.59 2.4-4.39-.78-6.23l-25.7-14.84c-3.18-1.84-8-2-10.79-.45l-27.23 15.72c-2.75 1.59-2.4 4.39.78 6.23l25.71 14.84c3.17 1.84 8.02 2.04 10.78.45z" style="fill: #000000"/>
		<path id="t-3x3" d="M218.63 91.42 l27.23-15.72c2.75-1.59 2.4-4.39-.78-6.23l-25.7-14.84c-3.18-1.84-8-2-10.79-.45l-27.23 15.72c-2.75 1.59-2.4 4.39.78 6.23l25.71 14.84c3.17 1.84 8.02 2.04 10.78.45z" style="fill: #000000"/>
	</g>
	<g id="right">
		<path id="r-1x1" d="M131.38 154.98 v29.69c0 3.66 2.25 5.37 5 3.78l27.23-15.72c2.76-1.59 5-5.9 5-9.56v-29.73c0-3.67-2.25-5.37-5-3.78l-27.23 15.72c-2.77 1.6-5 5.89-5 9.6z" style="fill: #3434d4"/>
		<path id="r-1x2" d="M173.81 130.48 v29.69c0 3.66 2.25 5.37 5 3.78l27.23-15.72c2.76-1.59 5-5.9 5-9.56v-29.73c0-3.67-2.25-5.37-5-3.78l-27.23 15.72c-2.77 1.6-5 5.89-5 9.6z" style="fill: #3434d4"/>
		<path id="r-1x3" d="M216.24 105.98 v29.69c0 3.66 2.25 5.37 5 3.78l27.23-15.72c2.76-1.59 5-5.9 5-9.56v-29.73c0-3.67-2.25-5.37-5-3.78l-27.23 15.72c-2.77 1.6-5 5.89-5 9.6z" style="fill: #3434d4"/>
		<path id="r-2x1" d="M131.38 203.98 v29.69c0 3.66 2.25 5.37 5 3.78l27.23-15.72c2.76-1.59 5-5.9 5-9.56v-29.73c0-3.67-2.25-5.37-5-3.78l-27.23 15.72c-2.77 1.6-5 5.89-5 9.6z" style="fill: #3434d4"/>
		<path id="r-2x2" d="M173.81 179.48 v29.69c0 3.66 2.25 5.37 5 3.78l27.23-15.72c2.76-1.59 5-5.9 5-9.56v-29.73c0-3.67-2.25-5.37-5-3.78l-27.23 15.72c-2.77 1.6-5 5.89-5 9.6z" style="fill: #3434d4"/>
		<path id="r-2x3" d="M216.24 154.98 v29.69c0 3.66 2.25 5.37 5 3.78l27.23-15.72c2.76-1.59 5-5.9 5-9.56v-29.73c0-3.67-2.25-5.37-5-3.78l-27.23 15.72c-2.77 1.6-5 5.89-5 9.6z" style="fill: #3434d4"/>
		<path id="r-3x1" d="M131.38 252.98 v29.69c0 3.66 2.25 5.37 5 3.78l27.23-15.72c2.76-1.59 5-5.9 5-9.56v-29.73c0-3.67-2.25-5.37-5-3.78l-27.23 15.72c-2.77 1.6-5 5.89-5 9.6z" style="fill: #3434d4"/>
		<path id="r-3x2" d="M173.81 228.48 v29.69c0 3.66 2.25 5.37 5 3.78l27.23-15.72c2.76-1.59 5-5.9 5-9.56v-29.73c0-3.67-2.25-5.37-5-3.78l-27.23 15.72c-2.77 1.6-5 5.89-5 9.6z" style="fill: #3434d4"/>
		<path id="r-3x3" d="M216.24 203.98 v29.69c0 3.66 2.25 5.37 5 3.78l27.23-15.72c2.76-1.59 5-5.9 5-9.56v-29.73c0-3.67-2.25-5.37-5-3.78l-27.23 15.72c-2.77 1.6-5 5.89-5 9.6z" style="fill: #3434d4"/>
	</g>
</svg>